# xmcd
#
# Track frame offsets: 
#        150
#        13329
#        34623
#        52779
#        72173
#        90454
#        101915
#        124415
#        142621
#        166265
#        187025
#        205337
#        234166
#        258490
#        281689
#        298346
#        325248
#
# Disc length: 4712 seconds
#
# Revision: 1
# Processed by: cddbd v1.5.2PL0 Copyright (c) Steve Scherf et al.
# Submitted via: ExactAudioCopy v0.99pb4
#
DISCID=f7126611
DTITLE=Rödelheim Hartreim Projekt - Direkt aus Rödelheim
DYEAR=1900
DGENRE=Rap
TTITLE0=In wenigen Sekunden
TTITLE1=Reime
TTITLE2=Keine ist
TTITLE3=Wenn es nicht Hart ist
TTITLE4=Wahnsinn
TTITLE5=Vision
TTITLE6=Guter Tag
TTITLE7=Mamaplazda
TTITLE8=Zeit zum Besinnen
TTITLE9=Krieg
TTITLE10=Papa
TTITLE11=Reime (Rödelheim Club Mix)
TTITLE12=Reime (Nachtschicht Mix)
TTITLE13=Keine ist (Harte Zeiten Club Mix)
TTITLE14=Keine ist (Stiller Sturm)
TTITLE15=Keine ist (Live)
TTITLE16=Wenn es nicht Hart ist (Phase 3)
EXTD=
EXTT0=
EXTT1=
EXTT2=
EXTT3=
EXTT4=
EXTT5=
EXTT6=
EXTT7=
EXTT8=
EXTT9=
EXTT10=
EXTT11=
EXTT12=
EXTT13=
EXTT14=
EXTT15=
EXTT16=
PLAYORDER=
